<svg xmlns="http://www.w3.org/2000/svg" viewBox="0 0 80 80"><path d="M21.13,4.75a39.86,39.86,0,0,1,24-4.42,12.65,12.65,0,0,1,1.26.25,35.2,35.2,0,0,1,9.92,2.89A40.25,40.25,0,0,1,73.51,18.18c2.63,4.74,4.91,9.79,5.81,14.26A41.12,41.12,0,0,1,79,48.72a40.09,40.09,0,0,1-32,30.64,38.47,38.47,0,0,1-10.87.44,40,40,0,0,1-15.07-75Zm12.23-.91A36.48,36.48,0,0,0,20.28,9,36.71,36.71,0,0,0,6.88,55.93,36.86,36.86,0,0,0,35.6,76.5c.51.08.43.1.83.18,2.29,0,4.64.19,7-.07a36.31,36.31,0,0,0,12.5-3.47A36.75,36.75,0,0,0,76.52,35.79,36.79,36.79,0,0,0,33.36,3.84Zm2.75,10.52A1.31,1.31,0,0,1,37.26,14c.38.16.31.58.33.91,0,3.55,0,7.11-.1,10.66-.24,2.46-.11,4.94-.19,7.41s-.07,4.92-.14,7.39c.37,1.08,2-.12,2.42.87a3.31,3.31,0,0,1,.21,1.56c0,1.43.05,2.87,0,4.31a1.78,1.78,0,0,1-.29.92c-.81.21-2-.35-2.51.52A13.47,13.47,0,0,0,37,51c0,2.8-.08,5.61-.05,8.41a1.85,1.85,0,0,1-.24.89,10.53,10.53,0,0,1-4.29.29c-1-.09-2,0-2.93-.07a.84.84,0,0,1-.68-.6c-.09-3.88.06-7.76,0-11.64A5.75,5.75,0,0,0,27,48.09c-1.71.23-3.43-.17-5.14,0-2.66.22-5.32.12-8,.2a6.16,6.16,0,0,1-1.49-.09,4.47,4.47,0,0,1-1.69-1.45,1.87,1.87,0,0,1,.2-1.94c1-1.74,2.45-3.2,3.62-4.84,2.27-3,4.73-5.92,7.16-8.81a20.68,20.68,0,0,1,3.13-3.47,1,1,0,0,1,1-.12,3.18,3.18,0,0,1,.44,1.92,31.92,31.92,0,0,1-.12,4.15A31.88,31.88,0,0,1,26,36.85c-.81,1.22-1.91,2.23-2.77,3.42a2,2,0,0,0-.07.55c1.83,0,3.66.07,5.48,0,.45,0,.68-.49.68-.88.06-2.4,0-4.8.17-7.2.11-3.69,0-7.38.26-11.06a2.73,2.73,0,0,1,.67-1.28A34,34,0,0,1,33,17.64c1.09-1,2-2.24,3.07-3.28Zm-17,6A14.17,14.17,0,0,1,20.85,19c.85.84.82,2.15.9,3.25C21.7,23.52,22,25,21.13,26c-1.61,1.74-3.45,3.27-4.94,5.11a8.7,8.7,0,0,1-2.13,2.15c-.75-.38-.82-1.27-.89-2a38.27,38.27,0,0,1-.22-4.9c.27-.84,1.05-1.35,1.62-2C16,23,17.61,21.72,19.09,20.33Zm32,7.6c4.49,0,8.73-1.88,13.21-1.87a16.48,16.48,0,0,1,4.6.27,1.5,1.5,0,0,1,1,1.83,18.21,18.21,0,0,1-2.25,4.36C63.25,39.93,58.85,47.33,54.9,55a49.9,49.9,0,0,0-3,7.9,11.5,11.5,0,0,1-.79,2.78,2.05,2.05,0,0,1-1.78,1c-2.53.07-5.06,0-7.58,0-.86-.13-1.75.14-2.56-.22,0-.36-.16-.77.06-1.09,1-1.5,2.06-3,3.16-4.42a79.2,79.2,0,0,0,5-7.52c1-1.62,1.86-3.3,2.91-4.89,2.27-3.51,4.4-7.11,6.52-10.71a12.45,12.45,0,0,0,1.4-2.62C58,34.65,57.43,35,57,35c-2.19.56-4.44.74-6.66,1.09a4.41,4.41,0,0,0-2.29.89,4.35,4.35,0,0,0-1.42,2.46,4.92,4.92,0,0,1-1.86,3.09,3,3,0,0,1-2.13.32c-.85-.55-.56-1.69-.59-2.54,0-2,.19-4,0-6a26.61,26.61,0,0,0-.19-3.68,4,4,0,0,1,.86-2.86c.6-.55,1.5-.35,2.23-.24A22.11,22.11,0,0,0,51.09,27.93Z" transform="translate(0 0)" fill="#1D232E" fill-rule="evenodd"></path></svg>