<svg viewBox="0 0 81 55" fill="none" xmlns="http://www.w3.org/2000/svg"><path d="M40.184 47.088c0-2.13 1.721-3.838 3.87-3.838a3.836 3.836 0 0 1 3.862 3.838 3.804 3.804 0 0 1-1.128 2.718 3.852 3.852 0 0 1-2.735 1.123 3.876 3.876 0 0 1-2.738-1.12 3.827 3.827 0 0 1-1.131-2.718v-.003Zm15.73.003a3.842 3.842 0 0 1 3.866-3.844 3.84 3.84 0 1 1 .003 7.682 3.876 3.876 0 0 1-2.739-1.12 3.826 3.826 0 0 1-1.13-2.718Zm-36.461 0a3.842 3.842 0 0 1 3.866-3.844 3.839 3.839 0 0 1 3.862 3.84c0 2.131-1.718 3.842-3.862 3.842a3.875 3.875 0 0 1-2.737-1.12 3.826 3.826 0 0 1-1.13-2.718Zm-15.73 0a3.842 3.842 0 0 1 3.866-3.844 3.842 3.842 0 0 1 2.737 6.56A3.856 3.856 0 0 1 7.59 50.93a3.874 3.874 0 0 1-2.734-1.121 3.826 3.826 0 0 1-1.129-2.717h-.003Zm31.803-6.788h-3.364v13.441h3.364V40.303ZM11.428 53.744h3.363V40.303h-3.363v1.078a6.981 6.981 0 0 0-3.996-1.237C3.563 40.144.44 43.247.44 47.09c0 3.864 3.123 6.944 6.992 6.944a6.966 6.966 0 0 0 3.996-1.237v.946Zm52.19 0h3.364V40.303h-3.363v1.078a6.98 6.98 0 0 0-3.996-1.237c-3.87 0-6.992 3.103-6.992 6.947a6.883 6.883 0 0 0 2.041 4.918 7.005 7.005 0 0 0 4.951 2.026 6.966 6.966 0 0 0 3.996-1.237v.946Zm4.61-4.367c.106 2.713 2.437 4.632 6.326 4.632 3.18 0 5.8-1.37 5.8-4.394 0-2.104-1.192-3.341-3.945-3.87l-2.145-.417c-1.378-.265-2.33-.53-2.33-1.343 0-.894.925-1.29 2.09-1.29 1.699 0 2.385.843 2.438 1.842h3.39c-.187-2.63-2.305-4.393-5.721-4.393-3.52 0-5.614 1.919-5.614 4.42 0 3.05 2.49 3.55 4.635 3.946l1.775.315c1.272.238 1.828.605 1.828 1.343 0 .658-.636 1.313-2.148 1.313-2.198 0-2.91-1.131-2.937-2.104h-3.443Zm-41.07-13.653v5.657a6.98 6.98 0 0 0-3.996-1.237c-3.87 0-6.992 3.103-6.992 6.947 0 3.864 3.123 6.944 6.992 6.944a6.974 6.974 0 0 0 3.996-1.237v.946h3.363v-18.02h-3.363Zm20.731 0v5.657a6.981 6.981 0 0 0-3.996-1.237c-3.866 0-6.992 3.103-6.992 6.947a6.88 6.88 0 0 0 .526 2.662c.35.844.865 1.61 1.515 2.256a7.006 7.006 0 0 0 4.951 2.026 6.966 6.966 0 0 0 3.996-1.237v.946h3.363v-18.02h-3.363Zm-38.712-3.97 2.278 3.97h15.703l-6.224-10.682L9.18 31.75l-.003.003Zm26.349 7.311v-3.341h12.363L34.703 13.046 22.92 19.755l9.244 15.969v3.341h3.363Zm17.371-3.341h15.727L48.289.759 36.53 7.494l16.366 28.23Z" fill="#1D232E"></path></svg>