<svg xmlns="http://www.w3.org/2000/svg" viewBox="0 0 1885.88 976.21"><path d="M666.31 710.4c63.75 0 107.05 49.31 107.05 122.68v136.51a3.89 3.89 0 0 1-3.61 3.61h-62.54a3.88 3.88 0 0 1-3.61-3.61V833.68c0-28.26-13.83-58.93-52.92-58.93h-1.2c-29.47.6-54.73 27.06-54.73 57.13v137.71a3.89 3.89 0 0 1-3.61 3.61H529.2a3.89 3.89 0 0 1-3.61-3.61V717a3.88 3.88 0 0 1 3.61-3.61h60.14A3.88 3.88 0 0 1 593 717v22.25c22.85-19.85 46.3-28.87 73.36-28.87m953.17 217.09c-1.2 1.21-.6 3.61.6 4.82 37.28 37.28 77.58 42.09 112.45 42.09 49.32 0 86-18.64 101.64-51.72a75.31 75.31 0 0 0 7.21-32.47c0-66.75-57.73-78.78-107.64-81.79-39.69-2.4-39.69-16.23-39.69-21 0-16.83 27.06-18.64 38.49-18.64 22.25 0 39.09 5.41 52.92 17.44a3.18 3.18 0 0 0 4.81-.6l35.48-40.89a3.19 3.19 0 0 0-.6-4.82c-25.86-21.65-53.52-30.66-93.82-30.66-25.85 0-51.11 6.61-69.75 17.43-24.06 14.44-36.69 36.09-36.69 62.55 0 46.3 36.69 74.56 104 79.38 37.88 2.4 42.7 13.23 42.7 22.85 0 13.83-18.65 21.05-36.69 21.05h-1.8c-29.47-.6-57.73-11.43-76.38-28.87-1.8-1.2-4.21-1.2-5.41.6ZM991.05 884.8c10.22-12 15-28.87 15-46.91 0-32.47-19.85-66.75-68-66.75-39.69 0-66.15 27.06-66.15 67.35s26.46 68 66.15 68c20.45 0 40.89-7.82 52.92-21.65m13.23-168.39a3.88 3.88 0 0 1 3.61-3.6h61.94a3.88 3.88 0 0 1 3.61 3.6v253.14a3.89 3.89 0 0 1-3.61 3.61h-61.94a3.88 3.88 0 0 1-3.61-3.61v-19.24c-21.65 19.84-47.51 20.44-69.76 21h-3.61c-37.28 0-68.55-11.42-91.4-33.67-24.06-23.46-36.09-57.73-36.09-98.63 0-79.38 50.52-130.49 129.3-130.49h1.2c24.66 0 50.52 2.4 71 19.24Zm-770.27-66.19v-60.73a4.11 4.11 0 0 0-4.21-4.21H4.21A4.11 4.11 0 0 0 0 589.53v378.86a4.11 4.11 0 0 0 4.21 4.21H65a4.12 4.12 0 0 0 4.21-4.21V813.84a4.1 4.1 0 0 1 4.2-4.21H187a4.11 4.11 0 0 0 4.21-4.21v-61.34a4.11 4.11 0 0 0-4.21-4.21H73.37a4.11 4.11 0 0 1-4.21-4.21v-76.37a4.11 4.11 0 0 1 4.21-4.21h155.75a4.75 4.75 0 0 0 4.81-4.82M1559.94 892a3.66 3.66 0 0 0-4.81 0 66.74 66.74 0 0 1-42.7 15.64c-37.88 0-64.34-27.06-64.34-66.15s26.46-66.15 64.34-66.15c15 0 30.07 5.41 42.7 15.64a3.66 3.66 0 0 0 4.81 0l40.29-42.1a3.64 3.64 0 0 0 0-4.81c-25.85-24.66-52.32-34.88-88.4-34.88-81.18 0-133.5 52.32-133.5 133.5s52.32 133.51 133.5 133.51c36.09 0 62.55-10.23 88.4-34.88a3.65 3.65 0 0 0 0-4.82Zm-323.53 81.2a3.89 3.89 0 0 0 3.61-3.61v-56.53a3.89 3.89 0 0 0-3.61-3.61h-30.67c-18-.6-26.46-9.62-26.46-28.86v-96.82h57.13a3.89 3.89 0 0 0 3.61-3.61V717a3.88 3.88 0 0 0-3.61-3.61h-56.53v-54.7a3.87 3.87 0 0 0-3.61-3.61h-62.54a3.88 3.88 0 0 0-3.61 3.61v221.9c0 58.93 33.08 92.61 91.41 92.61h34.88Zm-831.09-88.4c10.22-12 15-28.87 15-46.91 0-32.47-19.84-66.75-68-66.75-39.69 0-66.15 27.06-66.15 67.35s26.46 68 66.15 68c21.05 0 41.49-7.82 52.92-21.65m13.83-168.39a3.87 3.87 0 0 1 3.61-3.6h62.02a3.88 3.88 0 0 1 3.61 3.6v253.14a3.88 3.88 0 0 1-3.61 3.61h-61.94a3.88 3.88 0 0 1-3.61-3.61v-19.24c-21.65 19.84-47.51 20.44-69.76 21h-3.61c-37.28 0-68.55-11.42-91.4-33.67-24.06-23.46-36.09-57.73-36.09-98.63-.6-79.34 49.92-131.05 128.1-131.05h1.2c24.65 0 50.51 2.4 71 19.24ZM1277.3 973.2h62.54a3.89 3.89 0 0 0 3.61-3.61V716.42a3.88 3.88 0 0 0-3.61-3.61h-62.54a3.88 3.88 0 0 0-3.61 3.61v253.17c.6 1.8 1.81 3.61 3.61 3.61m71-336.77c0-51.11-77-51.11-77 0-.59 50.52 77 50.52 77 0M1267.07 63.76l-65 101c-1.2 1.8-4.21 3-6 1.8-149.74-75.16-322.94 63.15-475.68 30.07a12.46 12.46 0 0 1-3.61-2.4c.6 0-73.37-113.06-98-150.94-3-4.81.6-11.43 7.21-10.83 13.23 3 71 15.64 115.47 19.25 231.52 12.62 357.21-126.29 525 5.41 1.81 1.23 2.41 4.24.61 6.64ZM1078.24 353c1.2.6 2.41 0 3.61-1.2L1160 229.74c1.2-1.81 0-3.61-1.81-4.21-113.66-39.09-220.1 36.08-382.47 40.29a6.65 6.65 0 0 0-5.38 10.18l175 270.62c2.4 4.81 8.42 1.8 7.82-2.41l-37.89-171.35c-.6-1.8.6-3 1.8-3.6 15-4.21 114.26-37.89 161.17-16.24ZM1885.88 685.75c0 12.62-7.82 22.85-22.25 22.85s-22.25-10.23-22.25-22.85 7.82-22.86 22.25-22.86 22.25 10.23 22.25 22.86ZM1863.63 705c12 0 18.65-8.42 18.65-19.24s-6.62-19.25-18.65-19.25-18.63 8.41-18.63 19.24 6.61 19.25 18.63 19.25Zm3.61-16.24c9-1.2 8.42-15-1.8-15h-10.83v23.45h3.61v-8.42h4.78l7.22 8.42h4.21v-.6Zm-1.8-11.42a4.22 4.22 0 1 1 0 8.42h-7.22v-8.42Z" fill="#1d232e"></path></svg>