<svg xmlns="http://www.w3.org/2000/svg" viewBox="0 0 2236.42 575.52"><path d="M2097.44 182.51c-15 0-25.24-5.15-24.25-12.35 1-7.42 17-6.63 17.45-12.16.67-3.95-3.84-8.19-9.62-8.46-4.69-.12-10.79 2.3-15.5 5.84a723.12 723.12 0 0 0 68.83-71.85c10 10.15 16.34 31.52 16.34 43.71 0 20.14-23.56 55.27-53.25 55.27m-124.83 22.56c-13.67 0-23.33-3.8-23.33-10.81 0-7.24 14.56-7.24 14.56-12.65 0-3.66-4.36-7.53-9.71-7.53-4.36 0-9.7 2.65-13.75 6.34 18.84-23.64 38.65-47 54.94-72.12 9.24 10.21 19.71 25.86 19.71 41.24 0 19-16.1 55.53-42.42 55.53m-73-91.36c10.32 0 15.58 3.78 15.58 12.42 0 22.31-26.4 43-68.19 57.69 5.39-25.53 35.71-70.11 52.61-70.11m315.68 24.42c-7.3 0-28.73 9.68-40 16.31 4-8.52 5.46-18.43 5.46-27.71 0-24-11.4-50.16-29.49-66.1 5.32-7.5 14.48-21.34 14.48-30.36 0-3.4-3.1-4.8-6.24-4.8-7.15 0-29.17 42.89-36.53 52.54-25.59 33.21-48.59 60.31-84.77 83 2.24-6.54 2.3-13.2 2.3-19.75 0-21.14-16.52-43-32.19-55.89 4.86-9.31 9.89-19.11 9.89-29.89 0-3.26-3.4-4.36-6.19-4.36-5.27 0-17.07 32.94-20 38.38-17.21 34.78-87.15 135.11-130.39 135.11-12.27 0-19.89-5.5-19.89-18.33a48 48 0 0 1 1.16-10.49c33.5-6.31 84.44-32.81 84.44-68.6 0-14.6-7.36-25.18-25.18-25.18-31.46 0-67.11 36.81-81.83 63.56-2.09 4.22-3.26 9.08-5.94 13-9.33 14-44.66 57.49-64.82 57.49-8.75 0-11.72-3.14-11.72-11.28 0-29 96.31-135.13 96.31-181.92 0-20.3-15.59-32.6-34.73-32.6-25 0-88 67.14-102.29 83.17 6.57-12.77 19.66-36.11 19.66-57.11 0-27-23.67-36.32-58.72-36.32-56.15 0-143.7 63.51-143.7 118.32 0 18.58 14.51 26.37 29.28 26.37 35 0 79.53-60.25 79.53-72 0-3.2-2.13-4.27-4.89-4.27-2.32 0-36.09 65.81-74.64 65.81-10.38 0-19-3.17-19-17.94 0-45.83 82.35-104.48 130.16-104.48 16 0 39 1.52 39 22.37 0 5.73-5.55 15.44-8.58 20.59l-124.49 212.42c-2.32 3.78-2 4.3-2 6.39 0 2.73 2.79 2.73 4.45 2.73 8.4 0 28.29-3.17 35.12-4.8 4.51-.93 8-5.85 10.33-10.06 0 0 50.07-92.13 67.87-120.59a354.93 354.93 0 0 1 26.69-36c10.68-12.74 74.91-80.41 90.9-80.41 7 0 9.42 8.06 9.42 13.49 0 26.66-100.91 148.28-100.91 179.56 0 26.2 21.43 33.18 43.47 33.18 23.35 0 50.87-33 63.48-49.78 0 32.6 26.47 35.19 50.51 35.19 28.88 0 58.65-28.88 77.24-51.67a10.08 10.08 0 0 0-1.75 5.41c0 16.78 19.17 30.5 34.78 30.5 27.34 0 50.75-20.12 64.7-41.78 9.45-4.45 19.89-13.88 27.84-20.65a12.53 12.53 0 0 0-4.16 9.86c0 16.54 18.84 30.44 34.34 30.44 20.73 0 41.79-3.4 59.36-14.74 5.17-3.28 8.49-7.47 13.28-11 10-7.71 34.69-20.7 47.49-20.7 9.13 0 12 5.52 12 13.64 0 25.79-79 66.27-102.47 76.1-86.59 36.4-216.64 58.91-310.68 74.56-58.63 9.65-117.71 15.09-177.15 21.29-105.56 11.08-211.58 20.41-317.37 32.65-178 20.24-358.25 33.38-537.44 53.74-127.45 14.45-253.36 33.53-379.82 53.75-58.8 9.62-130.18 25.27-184.91 50-7.89 3.72-61.85 32.1-61.85 42.57 0 4.18 4.92 5.46 8.17 5.46 2.79 0 49.61-25.94 59.2-29.43 60.92-22.13 130-34 193.7-45.62 62.69-11.6 125.91-18.75 189.43-25.58 86.74-9.16 174-16.9 260.57-24.58 222.43-19.46 444.93-42.12 667.26-64.12 163.81-16.17 328.53-43.24 487-88.66 61-17.45 164.58-51.91 204.74-105.59 6-8 12.85-17.24 12.85-29.89 0-14.62-11.92-23.87-21.05-23.87" fill="#1d232e"></path><path d="M966.22 269.78c0-8.61-5.58-12.56-15.76-12.56-17 0-44.61 44.08-50 69.67 41.75-14.57 65.72-34.73 65.72-57.11m277.28-183.59c.35 1.77-1.07 5.2-3.11 9.1l-82.27 157.43c-5.76 11-30.59 57.46-30.59 69.27 0 3.6 2.5 4.91 5.78 4.91 15.15 0 45.34-32.33 53.25-43.49 4.13-5.51 23-31 25.41-31s4.86 3 4.86 5.76c0 3-18.87 29.08-23.69 34.92-16.84 20.15-35.65 46.26-64.65 46.26-17.42 0-30.16-11.28-30.16-29.45 0-4.6 1.28-8.76 2.82-14.57-17.42 23.18-54.32 60.52-80 60.52-16.46 0-30.07-8.4-30.07-32.4-19.6 27.28-46.12 47.06-70.6 47.06-25.21 0-48.85-2-50.19-32.81-13.66 18.38-37.83 45.25-65.89 45.25-13.06 0-31.55-4.36-31.55-16.86s38.88-65.37 38.88-82.67c0-2.51-3.82-5.39-6.11-5.39-16.51 0-53.68 44.23-62 57-10.33 16.51-21.9 40.71-21.9 40.71-1 2.26-3.44 6.74-5.79 7.47-6.46 1.86-31.4 7.47-31.4 4.74 0-1.23.44-4 2.64-8.29l7.87-16.13c-19.53 19.66-50.71 41.73-79.67 41.73-18.15 0-40.42-9.71-44.55-29.11-13.49 17-37.13 46.49-61 46.49-18.44 0-32.11-15.44-32.11-33.55-16.63 20.76-34.52 47.19-67.49 47.19-20.59 0-31.64-10.53-30.3-31.5-12.59 15.15-36.84 43.89-66.5 43.89-14.89 0-36.4-7.18-36.4-33.12 0-9.78 5.35-26.06 13.31-43.22l33.91-75.44c5.84-12.76 10.44-22.18 10.44-28.75 0-4.48-4.25-6.37-7.76-6.37-20.88 0-69.21 51.7-88.45 95l-43.28 96.52c-2.79 6.34-5.64 8.81-9.65 9.48-3.46.35-20.88 3-30.74 3-3.35 0-2.54-3.49-2.54-6s2.39-7 4.13-10.73l60-133.56c3.79-8.58 18.21-39.14 18.21-44.17 0-5.7-3.6-14.07-13-14.07-26.78 0-65.31 68.14-74 87.64l-52.5 117.31c-2.53 5.94-5.7 13.35-11.75 14.34-7 .93-13.84 2.5-20.85 2.5-3.05 0-12.88 1.28-12.88-3a14.61 14.61 0 0 1 2-6.36l78.22-175.14c4.45-10.15 9-20.68 9-26.41 0-24.93-14.72-33.73-42.8-33.73-37.36 0-83.51 55.19-83.51 92.47 0 12.8-1.08 22.89 14.16 22.89 12.68 0 35.48-24.78 41.35-34.37 7.27-11.83 13.89-24.42 16.31-24.42 3.29 0 4.07 5.11 4.07 8.14 0 16-42 64.73-62.73 64.73C5.14 363.86 0 347.44 0 326.9c0-52.16 53-105.47 96.36-105.47 29 0 71.77 11.69 71.77 47.92 0 10.79-1.48 14.8-4.95 24.92 10.76-18.4 36.56-50.6 60.92-50.6 19.6 0 38.21 9.22 38.21 31.06 0 9.19-3.89 18-7.12 26.58 12.73-16.11 46.58-53.54 76.16-53.54 11.63 0 31.52 9.95 31.52 30.12 0 15.85-8.81 42-14.83 55.43l-23.9 53.71c-6.17 13.7-9.89 27.33-9.89 32.19 0 6.54 1.22 14.43 9.48 14.43 19.25 0 62.78-54.27 70.14-67.38l22.74-40c1.8-3.11 5.62-6.83 9.42-7 7.18-.47 14.74-4.51 22-4.51 1.75 0 2.68 0 2.68 2 0 1-4.1 8.34-6 11.69l-23.14 44.58c-6.81 12.27-14.6 28.06-14.6 38.7 0 7.94 7.56 12.59 14.57 12.59 18.23 0 58.54-52.05 66.33-66.39 0 0 35.42-64.23 48.62-89l-60.95 15-.35-2.85c1.19-2.71 4.39-8.32 7.2-9.8l60.69-14.83 35.56-63.63c2.56-4.36 7.1-9.27 8.85-9.48 9.1-1 19.25-2.67 28.32-2.67 1.69 0 2 1.19 2 2.67s-3.12 8.85-5.39 12.85l-27.08 50.51 66.85-16.8-.23 2.44-4.37 8-1.86 2.24-67.4 16.78-52.17 94.13c-4.59 8.12-14.86 31-14.86 39.81 0 3 1.22 14.62 6.08 14.62 20 0 42-33.14 62-64.67 19-29.68 50.48-57.14 87-57.14 12.85 0 33.06 4.86 33.06 21.19 0 12-5.21 17.94-15.18 17.94-13.11 0-2.06-26.14-21.14-26.14-19.59 0-56.59 55.78-56.59 77.81 0 9.86 9.4 16.38 18.38 16.38 21.43 0 70-29.78 93.43-78.2 33.61-69.29 98.31-191.8 98.31-191.8 1.16-2.27 1.92-4.65 4.54-6.13 2.12-1.19 23.61-4.57 27.74-4.57 1.57 0 4.36-.06 4.76 2.45.18 1.77-1.11 5.4-3.08 9.27l-91.83 178.72c12.38-14.45 35.87-38.7 56.73-38.7 13.49 0 27.19 7.82 27.19 23.43 0 9-38.38 69.56-38.38 75.09a6.5 6.5 0 0 0 6.24 6.48c24.87 0 53.28-35.44 64.12-55.95 16.66-31.84 38.79-67.69 78.34-67.69 17.74 0 25.12 10.09 25.12 26.81 0 6.29-3 13.38-5.93 18.82-14.72 27.16-45 40.62-74.09 45.33a30.07 30.07 0 0 0-.85 6.75c0 14 13.93 15.53 24.9 15.53 45.85 0 77.2-66.15 97.61-103.37l79.85-146.27c1.33-2.21 2-4.74 4.42-6s23.78-4.68 27.82-4.68c1.48 0 4.57 0 4.83 2.47.21 1.86-1.07 5.33-3.17 9.25l-83 158.83c-5.76 11-30.48 57.34-30.48 69.23 0 3.87 2 4.83 5.7 4.83 30.62 0 83.34-70.66 101.66-104l78.89-144.73c1.23-2.32 2-4.8 4.54-6.13 2.09-1.34 23.64-4.6 27.89-4.6 1.46 0 4.37-.24 4.72 2.41" fill="#1d232e"></path></svg>