<svg xmlns="http://www.w3.org/2000/svg" viewBox="0 0 496 238.91"><path d="M469.16,234.67H237.65V8.67H469.16Z" transform="translate(-2 -2)" fill="#fff"></path><path d="M275.49,61.58v56.26h11.88V80.54l22.8,35.34a4.9,4.9,0,0,0,3.91,2h3.43a4.54,4.54,0,0,0,4.52-4.53V57.05H310.17V94.28L287.37,59a4.86,4.86,0,0,0-3.92-2H280a4.55,4.55,0,0,0-4.55,4.53m0,75.66v36.47a12.15,12.15,0,0,0,11.85,12.15H322V175.31H289a1.59,1.59,0,0,1-1.58-1.6V160.5h31.75V150H287.37V137.24a1.57,1.57,0,0,1,1.58-1.57H322v-10.6H287.34v0a12.18,12.18,0,0,0-11.85,12.15m52.86,0v48.62h11.87V137.24a1.58,1.58,0,0,1,1.59-1.57h24.81a1.59,1.59,0,0,1,1.59,1.57v11.11a1.61,1.61,0,0,1-1.59,1.6H347.87a2.12,2.12,0,0,0-2,1.31l-4,9.24h15.05l12.44,25.36h13.75l-13.36-25.39a12.27,12.27,0,0,0,10.33-12V137.24a12.17,12.17,0,0,0-11.84-12.15v0h-28v0a12.18,12.18,0,0,0-11.86,12.15m51.73-31.54a12.14,12.14,0,0,0,11.85,12.14h34.66a12.15,12.15,0,0,0,11.83-12.14V57.07H426.54V105.7a1.58,1.58,0,0,1-1.57,1.57h-9.78V57.07H403.3v50.2h-9.79A1.56,1.56,0,0,1,392,105.7V57.07H380.08Zm7.4,31.54v48.62h11.88V137.24a1.59,1.59,0,0,1,1.6-1.57h24a1.57,1.57,0,0,1,1.57,1.57V150H407.31a2.18,2.18,0,0,0-2,1.31l-4,9.24h25.28v25.36h11.88V137.24a12.16,12.16,0,0,0-11.83-12.15v0H399.33v0a12.17,12.17,0,0,0-11.85,12.15m-47.27-19.4h33.55V107.26H341.81a1.59,1.59,0,0,1-1.59-1.56V92.48h30.62V81.91H340.22V69.23a1.61,1.61,0,0,1,1.59-1.59h31.95V57.05H340.21v0a12.17,12.17,0,0,0-11.86,12.16V105.7a12.17,12.17,0,0,0,11.86,12.14Z" transform="translate(-2 -2)" fill="#1d232e"></path><path d="M489.25,233.25h1.5c1.54,0,2-.44,2-1.34s-.38-1.23-1.83-1.23h-1.71Zm0,4.63H488v-8.25h3.17c2,0,2.92.73,2.92,2.36a2.15,2.15,0,0,1-2.16,2.27l2.36,3.62h-1.39l-2.2-3.59h-1.42Zm1.52-10.12a6,6,0,1,0,5.84,6,5.82,5.82,0,0,0-5.84-6m0-1.16a7.16,7.16,0,1,1-7.26,7.13,7.14,7.14,0,0,1,7.26-7.13" transform="translate(-2 -2)" fill="#231f20"></path><path d="M468.76,233.29H239.22V9.62H468.76ZM2,2H2V240.9H476.38V2H2Z" transform="translate(-2 -2)" fill="#1d232e"></path><path d="M73,70.67s2.14,7.29,2.34,8.16c.07-4.07,3.78-6.94,8.51-6S96,75.29,99,75.89c13.52,2.69,19.86,5.07,24.83,16.64l15.86,36.83c-3.43-2.22-8-3.07-19.43-1.58l-2.83.35s-8-21.79-10.4-28.27S101.8,89.38,94,88.42l-16.55-2,13,45.12-28.88,3.69L47.41,65.55ZM180.77,99.81c3.9.43,6.32,2.3,7.59,4.39l1.75,2.79-43.32-1.26-5-10.32,39,4.4m14,14.76,4.27,7-40.94,7.5-5.52-11.39Zm12.71,20.74-38.15,17c-9.6,4.29-18.11,3.78-21.14-3.28-1.41-3.26-7.62-3.08-19.49.43L68.14,167.08l-4.22-20.66,59.6-11c11.19-2.08,18.44-.88,21.42,6.07.79,1.78,1.19,2.71,1.19,2.71l56.64-16.58Zm-163.9,48.4c.86,6.5,7,9.36,13.4,7.11,6-2.18,56.19-21.95,64.09-25,10.73-4.14,16.61-4.84,18.57.2,3.13,8.06,12.55,8.44,23.79,2.05C173.54,162.3,216,137.82,216,137.82s-19.56-30.88-21.6-34.13c-3-4.77-6.87-8.53-15.23-10l-51.84-9.26c-2.7-6-10.25-12.32-21.23-15.07l-67.92-17c-6.74-1.69-12,3.08-11,10,0,0,15.54,115,16.39,121.36" transform="translate(-2 -2)" fill="#fff"></path></svg>