<svg viewBox="0 0 86 44" fill="none" xmlns="http://www.w3.org/2000/svg"><g clip-path="url(#a)" fill="#1D232E"><path d="M12.061 43.205h-2.014c-.058-.013-.112-.03-.172-.036-.4-.05-.801-.082-1.196-.148a11.77 11.77 0 0 1-5.643-2.62C1.728 39.307.97 37.928.726 36.286c-.036-.24-.083-.476-.126-.714v-1.114c.029-.14.062-.279.083-.417.043-.29.067-.584.117-.871.2-1.175.552-2.31.99-3.422.78-1.98 1.8-3.844 2.942-5.65 1.922-3.039 4.151-5.868 6.537-8.583.029-.035.067-.062.1-.091a.344.344 0 0 1-.043.168c-.119.246-.242.49-.359.739-.764 1.637-1.36 3.324-1.61 5.111-.155 1.1-.165 2.196.06 3.288.44 2.161 1.645 3.802 3.639 4.899 1.306.718 2.728 1.067 4.217 1.176 1.547.117 3.07-.047 4.563-.437 5.648-1.466 11.293-2.937 16.94-4.405l11.697-3.041c.053-.014.102-.037.155-.057l-.007-.023H42.98c-.083-3.037-.164-6.06-.248-9.08a.464.464 0 0 0-.126.191c-.48 1.215-.96 2.43-1.444 3.648-.668 1.69-1.339 3.378-2.008 5.068-.045.114-.08.194-.242.194-1.701-.007-3.402-.005-5.103-.005-.047 0-.093-.018-.154-.03C36.505 15.48 39.35 8.151 42.19.824h5.505c-.436 1.092-.864 2.165-1.287 3.24-.421 1.068-.857 2.133-1.25 3.214a.65.65 0 0 0 .153-.132 2592.63 2592.63 0 0 0 5.281-6.14.506.506 0 0 1 .43-.198c3.329.006 6.657.004 9.985.004h6.34l-1.461 3.673h-5.5l-.6 1.553c-.197.508-.394 1.016-.587 1.527-.195.513-.41 1.017-.592 1.568h5.21c-.543 1.384-1.074 2.739-1.604 4.102h-5.224c-.692 1.78-1.382 3.55-2.086 5.353h6.335l-.626 1.69c.136-.03.228-.046.319-.07 7.51-1.95 15.02-3.902 22.53-5.851.497-.13.995-.251 1.492-.377a.556.556 0 0 1 .45.057v.128c-.12.178-.308.26-.5.34-3.29 1.368-6.578 2.74-9.868 4.106C60.2 24.76 45.368 30.915 30.531 37.054a762.955 762.955 0 0 1-9.211 3.726c-1.68.67-3.39 1.265-5.148 1.719-1.14.294-2.29.524-3.466.633-.219.019-.43.048-.645.073ZM56.192 1.357c-.017-.011-.033-.023-.047-.036-.046.054-.086.111-.134.161-2.614 2.754-5.23 5.51-7.85 8.262a.464.464 0 0 0-.14.363c.042 1.165.08 2.328.116 3.493l.228 7.5c.003.053.01.105.015.158l.035.004 7.777-19.905Z"></path><path d="m20.688 22.852.651-9.578c-.016-.004-.033-.009-.05-.011l-3.732 9.575h-5.436C15 15.486 17.866 8.158 20.735.82h5.75c.03.114-.16 3.196-.286 4.865a275.204 275.204 0 0 0-.316 4.86c.452-1.069.866-2.152 1.292-3.23.426-1.083.849-2.166 1.273-3.251.423-1.083.849-2.164 1.275-3.251h5.428l-.1.271c-1.437 3.673-2.873 7.343-4.308 11.016l-4.12 10.535c-.09.235-.057.214-.312.214H20.94c-.074.003-.145.003-.252.003ZM32.682 22.843h-5.379l-.016-.023c-.005-.006-.01-.011-.01-.018.003-.02.003-.043.012-.064L35.86.818h5.436c-2.876 7.355-5.743 14.689-8.614 22.025Z"></path></g><defs><clipPath id="a"><path fill="#fff" transform="translate(.6 .8)" d="M0 0h84.8v42.4H0z"></path></clipPath></defs></svg>