<svg xmlns="http://www.w3.org/2000/svg" viewBox="0 0 134.97 69.45"><path d="M0 0h14a9.6 9.6 0 0 1 6.58 2.6 7.38 7.38 0 0 1 2.33 5.46 7.88 7.88 0 0 1-1.69 5.21 8.1 8.1 0 0 1-3.61 2.46 6.62 6.62 0 0 1 3.71 2.55 6 6 0 0 1 .94 3.45v6.56h-5.93v-5.3a5.29 5.29 0 0 0-1.21-3.52 5.18 5.18 0 0 0-3.59-1.3h-4v-4.9h5.78a3.61 3.61 0 0 0 3.22-2.11 4.45 4.45 0 0 0-.87-5.13 4.44 4.44 0 0 0-2.89-.92H5.62v18.07H0ZM71.05 0h5.8v18.25h4.45a4 4 0 0 0 3.79-3.52 4.08 4.08 0 0 0-3-4.59 28.61 28.61 0 0 0-3.21-.07V5.12h3.73a8.22 8.22 0 0 1 6.69 3.5 9.82 9.82 0 0 1 1.55 7.53 9.33 9.33 0 0 1-6.47 6.58 14.37 14.37 0 0 1-4.71.48h-8.62ZM116.6 0h5.85v11.06a23.53 23.53 0 0 0 3.66-.12 3.44 3.44 0 0 0 2.45-2.21 10.69 10.69 0 0 0 .44-3.67h5.75c-.05 1.91 0 3.95-1 5.65a6.69 6.69 0 0 1-3.94 2.82 6.65 6.65 0 0 1 4.4 3.46c1 1.92.62 4.12.68 6.18h-5.8c-.11-1.71.34-3.58-.56-5.14a4.24 4.24 0 0 0-3.53-2h-2.57v7.19h-5.85ZM101 5.05a13.09 13.09 0 0 1 8.55 1.16 8.74 8.74 0 0 1 4.17 5.18 9.85 9.85 0 0 1-1.16 8.23 9.65 9.65 0 0 1-5.89 3.88 12.47 12.47 0 0 1-8.14-.8 9.3 9.3 0 0 1-5.06-6 9.68 9.68 0 0 1 1.58-8.13 9.78 9.78 0 0 1 6-3.47m1.43 4.6A4.84 4.84 0 0 0 99 14.54a4.91 4.91 0 0 0 2.29 3.88 4.56 4.56 0 0 0 4.44.22 4.91 4.91 0 0 0 2.27-6.06 4.7 4.7 0 0 0-5.56-2.93ZM26.25 9.33a8.76 8.76 0 0 1 7.19-4.21H44.7v5.29c-1.22 2-2.47 4-3.7 6h-5.59c1.23-2.1 2.47-4.2 3.69-6.31h-4.56a3.9 3.9 0 0 0-3.38 1.94 4.23 4.23 0 0 0 .15 4.56 4 4 0 0 0 3.4 1.76h10v4.93h-9.63a13 13 0 0 1-3.94-.39 8.86 8.86 0 0 1-5.59-5.24 9.37 9.37 0 0 1 .7-8.33ZM51 6.86a8.61 8.61 0 0 1 5.13-1.75h11.05v5.29l-3.72 6h-5.57c1.22-2.11 2.46-4.2 3.68-6.31h-4.92a4.14 4.14 0 0 0 .27 8.24h10.3v4.93H56.13A8.56 8.56 0 0 1 50 20.6a9.25 9.25 0 0 1 1-13.74ZM96.94 35.55c12.65-1.43 25.34-2.46 38-3.29-6.87 1.79-13.75 3.52-20.55 5.57A275.59 275.59 0 0 0 86.36 48c-4.81-2.91-9.64-5.79-14.44-8.71 8.27-1.66 16.65-2.76 25.02-3.74ZM5.5 33.05h47.47c3.46 1.79 6.79 3.82 10.17 5.77q19.59 11.53 39 23.45c3.1 1.91 6.21 3.81 9.29 5.78a19.85 19.85 0 0 1 2 1.38c-14-6-27.82-12.36-42-17.89A325.09 325.09 0 0 0 34.5 39.5c-6.92-1.82-13.9-3.4-20.9-4.83-2.69-.57-5.41-1.01-8.1-1.62ZM22.86 56.78a97.64 97.64 0 0 1 21.22-10.35c4.4 1.22 8.73 2.72 13.06 4.16a70.78 70.78 0 0 0-16.3 9.14 44.2 44.2 0 0 0-8.69 8.43H10.67a51.39 51.39 0 0 1 12.19-11.38ZM44.73 63.17a63 63 0 0 1 16.81-11c3.46 1.2 6.86 2.56 10.26 3.85a51.76 51.76 0 0 0-8.32 7.12 40.22 40.22 0 0 0-3.81 5H40.23a36 36 0 0 1 4.5-4.97Z" fill="#1D232E"></path></svg>