<svg viewBox="0 0 66 48" fill="none" xmlns="http://www.w3.org/2000/svg"><path d="M2.084 35.59c.066-.254.1-.419.153-.577.81-2.456 1.614-4.915 2.437-7.366.872-2.593 2.489-3.772 5.143-3.774 3.758-.003 7.516-.002 11.274-.002h.761c-.292-.237-.441-.365-.599-.482-3.924-2.918-7.845-5.84-11.783-8.74-.377-.277-.437-.504-.292-.943.992-3.001 1.944-6.017 2.93-9.02.64-1.942 1.846-3.277 3.894-3.63.347-.06.707-.073 1.06-.073C27.531.98 38.002.983 48.473.97c.436 0 .613.152.743.56.843 2.627 1.72 5.242 2.556 7.871.143.454.326.62.808.617 4.057-.023 8.115-.012 12.172-.012h.72c.013.223.033.406.033.59.002 1.673-.01 3.348.01 5.021.005.39-.114.626-.42.853-2.82 2.093-5.625 4.208-8.448 6.297-.35.26-.411.469-.27.891 1.249 3.744 2.47 7.497 3.697 11.248.064.194.113.394.185.65-.236.013-.415.032-.594.032-2.133.002-4.263.012-6.395-.012a1.584 1.584 0 0 1-.866-.293 423.967 423.967 0 0 1-5.858-4.367c-.324-.247-.537-.26-.869-.006a382.03 382.03 0 0 1-5.798 4.355 1.646 1.646 0 0 1-.915.311c-12.097.015-24.195.013-36.292.013-.163.002-.33.002-.59.002Zm63.12-22.676-.028-.142h-.593c-4.693 0-9.385-.007-14.078.01-.432.001-.604-.135-.74-.554-.946-2.936-1.924-5.86-2.891-8.789-.239-.719-.481-1.435-.767-2.288-.115.305-.186.471-.242.642C44.74 5.174 43.6 8.55 42.507 11.942c-.194.6-.466.76-1.061.757-4.6-.028-9.2-.015-13.798-.015h-.579c.139.252.295.384.457.507 3.73 2.798 7.457 5.603 11.2 8.384.373.278.435.507.29.945-1.359 4.07-2.696 8.147-4.038 12.223-.059.176-.11.354-.215.698 3.833-2.853 7.535-5.608 11.258-8.381l11.09 8.212c-.085-.317-.126-.496-.181-.67-1.272-3.999-2.535-8-3.831-11.99-.154-.474-.056-.7.321-.975 2.152-1.566 4.284-3.161 6.423-4.747l5.362-3.976ZM57.19 44.105l1.84.755-.593 2.75c-1.948-.304-3.589-1.16-5.066-2.378-.097-.08-.187-.268-.165-.38.161-.804.353-1.601.533-2.393.443 0 .834.012 1.224-.002 1.006-.037 1.94-.944 1.94-1.871 0-.736-.45-1.24-1.167-1.273-.466-.021-.935.012-1.401-.013-.335-.019-.44.128-.508.448-.508 2.401-1.036 4.798-1.559 7.196-.045.206-.097.41-.153.646H40.544c.143-.696.278-1.379.425-2.06.59-2.717 1.194-5.43 1.77-8.15.098-.464.256-.65.759-.642 2.111.034 4.223.015 6.336.015h.636c-.18.817-.328 1.578-.53 2.325-.032.114-.312.22-.478.224-1.14.02-2.28.01-3.42.01h-.587l-1.234 5.7c.18.022.318.054.457.055 1.476.003 2.953-.01 4.429.01.375.006.512-.13.59-.497.511-2.42 1.055-4.833 1.56-7.256.092-.435.243-.591.694-.583 1.569.027 3.14.002 4.71-.003 1.87-.006 3.124.833 3.551 2.377.467 1.686-.214 3.387-1.76 4.344-.364.221-.758.39-1.261.646ZM37.776 47.601h-3.072l1.783-8.255h-2.268c.127 1.068.014 2.076-.61 2.964-.602.854-1.446 1.359-2.569 1.767l1.923.782-.602 2.755c-1.926-.311-3.564-1.143-5.025-2.361-.129-.108-.189-.406-.158-.594.1-.604.287-1.194.383-1.798.06-.387.237-.464.57-.424.258.032.522.03.784.02.778-.034 1.587-.646 1.847-1.384.309-.88-.216-1.72-1.116-1.76-.486-.02-.972-.006-1.458-.004-.092 0-.183.015-.332.028l-.942 4.306c-.254 1.161-.526 2.32-.753 3.486-.072.37-.196.519-.577.506-.854-.028-1.71-.01-2.633-.01l.811-3.717c.487-2.229.982-4.457 1.45-6.689.073-.35.198-.474.549-.472 1.7.011 3.4-.01 5.102-.007 1.589.003 2.693.767 3.33 2.443.175-.778.3-1.413.47-2.033.044-.154.238-.377.364-.378 2.464-.022 4.928-.016 7.477-.016-.179.815-.332 1.574-.524 2.323-.027.104-.24.216-.37.223-.504.027-1.012.044-1.514.001-.415-.036-.539.154-.618.53-.512 2.42-1.044 4.834-1.57 7.25-.035.165-.083.33-.132.518ZM17.012 36.817l-.55 2.492c-.58 0-1.121.022-1.66-.007-.374-.02-.506.12-.584.496-.504 2.424-1.035 4.84-1.56 7.259-.036.168-.086.333-.138.531H9.46l1.753-8.225c-.143-.022-.249-.05-.353-.05-1.645-.004-3.29-.02-4.936.015-.264.006-.655.184-.758.4-.188.397.19.574.494.754.63.375 1.252.767 1.859 1.18.546.371.82.925.904 1.59.208 1.634-.689 3.256-2.206 3.792-.768.272-1.59.46-2.4.519-1.185.085-2.38.022-3.634.022L.7 45.099c.864 0 1.72.023 2.573-.01.46-.017.936-.073 1.37-.22.245-.084.553-.363.59-.594.036-.221-.186-.58-.395-.732-.485-.353-1.024-.63-1.553-.914-1.843-.987-2.08-3.523-.44-4.865.705-.578 1.525-.963 2.417-.972 3.851-.04 7.703-.026 11.554-.03.054-.004.107.027.197.055Z" fill="#1D232E"></path><path d="M19.29 39.986c-1.431 2.423-2.747 4.908-3.645 7.606H12.66c.15-.444.266-.847.42-1.232a41.877 41.877 0 0 1 4.343-8.116c.183-.268.401-.508.584-.775.374-.544.84-.82 1.52-.729.46.062.938.052 1.4.002.492-.055.734.165.835.616.292 1.308.702 2.603.837 3.928.195 1.906.183 3.836.267 5.754.018.427-.11.622-.576.598-.797-.042-1.597-.012-2.432-.012v-1.704h-3.176c.373-.8.687-1.508 1.04-2.194.05-.1.289-.13.441-.134.537-.016 1.075-.006 1.695-.006l-.421-3.58a2.038 2.038 0 0 0-.147-.023ZM50.311 39.823c-.188.858-.34 1.605-.524 2.342-.024.1-.2.23-.308.232-1.394.015-2.79.01-4.282.01.193-.832.363-1.604.559-2.369.023-.09.179-.205.273-.206 1.395-.014 2.79-.01 4.282-.01ZM63.38 45.832a1.572 1.572 0 0 1-1.586 1.573 1.565 1.565 0 0 1-1.57-1.588c.002-.888.69-1.568 1.584-1.566a1.555 1.555 0 0 1 1.573 1.58Zm-.313.016a1.268 1.268 0 0 0-1.27-1.308 1.298 1.298 0 0 0-1.28 1.257 1.248 1.248 0 0 0 1.228 1.287c.752.024 1.31-.496 1.322-1.236Z" fill="#1D232E"></path><path d="m62.391 46.742-.74-.902-.13.085-.096.755-.122.002v-1.701c.396-.004.897-.232 1.22.216.1.142-.135.538-.217.819a7.1 7.1 0 0 1-.159-.023l.369.636-.125.113Zm-.818-.949.771-.398c-.16-.09-.314-.229-.484-.26-.361-.069-.45.136-.287.658Z" fill="#1D232E"></path></svg>