<svg viewBox="0 0 80 50" fill="none" xmlns="http://www.w3.org/2000/svg"><path d="M51.485 49.999c-.183-.069-.224-.212-.223-.407.006-1.482.003-2.963.004-4.445 0-.313.072-.391.366-.393.519-.002 1.038.002 1.556-.001a.65.65 0 0 1 .563.277c.12.168.224.352.314.54.346.714.682 1.432 1.024 2.148.05.103.11.2.184.331.068-.118.121-.2.164-.288.356-.734.709-1.47 1.066-2.205.074-.153.15-.307.243-.449a.73.73 0 0 1 .663-.356c.504.01 1.008.002 1.511.003.06 0 .12 0 .177.015.103.026.17.093.175.213.003.07.002.142.002.213 0 1.481-.002 2.963.005 4.445 0 .171-.045.286-.187.359h-1.068c-.188-.06-.231-.202-.23-.398.007-.968.004-1.935.003-2.903 0-.065-.008-.13-.012-.196a.754.754 0 0 0-.164.233l-1.516 2.962c-.053.103-.114.202-.172.302H54.6c-.043-.082-.088-.164-.13-.247l-1.561-3.069c-.032-.062-.07-.12-.106-.181l-.033.017v.258c0 .936-.003 1.873.002 2.809.001.192-.041.338-.219.413h-1.067ZM6.954 50c-.15-.078-.19-.206-.19-.382.006-1.483.003-2.965.003-4.447 0-.048-.001-.095.003-.142.016-.186.09-.273.27-.274.593-.006 1.186-.005 1.779 0 .171 0 .316.094.436.21.186.18.363.372.532.57.124.146.228.31.343.465l1.643 2.235c.026.035.057.065.117.133.006-.122.012-.204.012-.286l.001-2.862c0-.403.061-.468.436-.468.274 0 .548-.002.823 0 .255.003.335.082.335.352l-.003 4.897h-2.136a1.235 1.235 0 0 1-.635-.442c-.781-1.042-1.57-2.077-2.356-3.113-.025-.032-.06-.055-.113-.105v.272c0 1.001-.004 2.002.003 3.004.001.177-.044.302-.19.383H6.953ZM60.96 50.003c-.024-.014-.048-.036-.074-.042-.441-.096-.728-.387-.86-.83a3.785 3.785 0 0 1-.166-.898c-.026-.59-.014-1.182-.008-1.772.002-.164.028-.33.062-.49.16-.734.611-1.148 1.323-1.216.14-.014.281-.017.422-.018 1.015 0 2.03-.002 3.045.002.184 0 .372.006.552.042.693.141 1.096.57 1.169 1.316.055.562.052 1.132.048 1.698-.002.344-.042.69-.092 1.031a1.888 1.888 0 0 1-.17.508c-.153.33-.41.53-.745.62-.05.012-.097.032-.146.049h-4.36Zm2.215-1.369c.303 0 .607-.01.91.003.424.019.668-.226.702-.617.038-.429.05-.863.032-1.293-.015-.356-.21-.552-.537-.627a1.338 1.338 0 0 0-.287-.026c-.429-.002-.858-.001-1.287-.001-.133 0-.267-.003-.4 0-.48.015-.728.253-.753.764-.017.337.004.676.015 1.014.003.1.023.203.05.3.092.332.276.479.6.482.318.004.636.001.955.001ZM73.95 50c-.128-.116-.163-.261-.162-.44.006-1.387.003-2.774.004-4.16 0-.087 0-.174.012-.26.032-.233.164-.363.383-.384.052-.004.104-.002.156-.002 1.437 0 2.874 0 4.311.002.14 0 .282.014.42.036.485.078.826.463.881.981.01.085.03.169.046.253v.898c-.014.045-.038.09-.038.134-.005.333-.176.554-.422.73-.051.035-.097.08-.162.137.39.145.559.433.585.83.002.036.024.072.037.11V50h-1.513c-.155-.126-.158-.307-.159-.489 0-.118.011-.237-.002-.353-.041-.367-.156-.473-.507-.473-.533-.002-1.066 0-1.6 0h-.238l-.472-.946-.042.013v.2c0 .472-.007.944.002 1.416.005.242.008.472-.225.609-.004.002-.003.015-.004.022h-1.29Zm1.498-2.734c.066.01.109.021.152.021.65.001 1.301.007 1.952-.003.182-.002.369-.033.546-.08.091-.026.205-.099.241-.183.095-.222.075-.463-.013-.686-.023-.06-.105-.111-.17-.132a1.052 1.052 0 0 0-.306-.04c-.702-.003-1.405-.002-2.107-.001-.052 0-.104 0-.155.008-.081.013-.14.06-.14.154-.002.312 0 .625 0 .942ZM44.723 50c-.121-.11-.163-.244-.162-.416.005-1.411.003-2.822.003-4.234 0-.063 0-.126.007-.188.03-.257.167-.391.411-.407.045-.003.09 0 .134 0 1.438 0 2.876-.002 4.314 0 .147.001.296.017.442.04a.93.93 0 0 1 .742.603c.062.15.105.313.13.474.062.399.053.8.005 1.201a.954.954 0 0 1-.429.71c-.05.034-.095.073-.142.11.009.02.012.043.02.046.401.153.533.505.566.907.026.305.016.614.008.921-.002.078-.057.155-.088.232h-1.423c-.152-.114-.166-.285-.167-.46 0-.119.011-.237.004-.354-.026-.378-.15-.5-.504-.5-.532-.002-1.065-.001-1.597-.001h-.243c-.088-.174-.164-.335-.25-.49-.08-.147-.12-.322-.264-.464 0 .576-.01 1.118.005 1.66.006.243-.018.449-.227.587-.004.002-.003.014-.005.022h-1.29Zm1.485-2.73c.068.01.104.017.14.017.66.001 1.319.006 1.978-.002a2.3 2.3 0 0 0 .527-.074c.232-.059.3-.168.31-.421.018-.52-.076-.626-.57-.628-.689-.002-1.378 0-2.067 0-.044 0-.089.001-.133.003-.113.007-.183.067-.184.19-.004.299-.002.597-.002.916ZM27.24 49.997c-.122-.112-.15-.252-.15-.421.005-1.411.003-2.822.003-4.233 0-.055-.002-.11.002-.165.016-.257.152-.403.392-.424.052-.005.104-.002.156-.002 1.43 0 2.86-.001 4.29.002.163 0 .327.014.487.044.318.06.56.245.7.56a2 2 0 0 1 .127.4c.089.428.071.863.028 1.294a.947.947 0 0 1-.437.731c-.05.033-.095.073-.141.109.01.02.012.043.022.046.392.148.527.491.562.885.027.312.018.63.01.944-.001.077-.058.154-.09.23h-1.424c-.167-.14-.157-.338-.159-.535 0-.148.001-.3-.023-.444-.035-.209-.153-.31-.35-.332-.058-.007-.118-.004-.177-.004-.54 0-1.079-.004-1.618.003-.127.002-.204-.036-.26-.162-.093-.213-.201-.42-.305-.627-.026-.052-.058-.1-.087-.15a1.718 1.718 0 0 0-.036.008v.2c0 .48-.012.96.004 1.438.008.243-.02.448-.23.583-.005.003-.004.015-.006.022h-1.29Zm1.5-2.732c.069.008.12.02.17.02.636.001 1.273.004 1.91-.002.162-.001.325-.022.485-.053.154-.03.32-.078.357-.27.042-.223.064-.459-.062-.662-.038-.062-.133-.098-.208-.117-.092-.023-.191-.02-.287-.021-.681-.002-1.362-.001-2.044 0-.059 0-.118 0-.177.007-.08.012-.143.056-.143.15-.003.313-.002.627-.002.948ZM14.071 50.001v-5.23c.086-.006.15-.014.215-.014 1.4-.001 2.8-.003 4.2 0 .342.001.677.061.995.208.54.25.873.69.94 1.305.088.806.094 1.62-.029 2.425-.106.696-.46 1.067-1.108 1.208-.18.04-.36.066-.542.098h-2.624l-.452-.954-.043.01c0 .232.003.463-.002.695-.002.083-.024.166-.037.25H14.07Zm1.54-1.434c.04.01.054.018.069.018.858.001 1.717.007 2.575-.001.345-.004.584-.233.612-.618a6.25 6.25 0 0 0-.01-1.106c-.056-.53-.245-.684-.748-.693H15.612v2.4ZM21.722 50c-.004-.008-.007-.018-.012-.02-.451-.167-.636-.533-.67-1.012-.008-.118-.018-.235-.018-.354-.002-.859-.001-1.718-.001-2.578 0-.07 0-.142.006-.212.063-.646.427-1.022 1.039-1.027 1.349-.01 2.698-.006 4.047-.004.24 0 .314.085.32.346.005.204.004.41 0 .614-.003.284-.076.362-.347.363h-3.114c-.315.003-.473.264-.341.577.017.043.07.084.113.095.086.02.176.025.265.025.8.002 1.6.001 2.401.001h.253c.154.325.31.638.45.957.069.154.012.23-.154.248a4431.174 4431.174 0 0 1-2.869 0c-.021 0-.043-.01-.076-.017l-.386-.788c-.016.084-.033.13-.034.176-.002.315-.003.63 0 .946.002.324.045.37.348.37 1.045.002 2.09 0 3.135.001.369 0 .425.058.43.447.002.15.001.3 0 .449-.001.144-.027.28-.114.396h-4.671ZM68.656 50c-.1-.02-.2-.04-.3-.062-.8-.166-1.272-.723-1.343-1.59a6.222 6.222 0 0 1-.016-.496c-.002-.867-.001-1.735 0-2.602 0-.079-.002-.158.006-.236.016-.152.082-.245.222-.25.377-.013.755-.013 1.133-.003.142.004.205.094.219.249.006.07.004.142.004.213v2.483c0 .11.006.221.02.33.045.334.229.518.543.55.074.007.148.006.222.006h1.58c.42-.018.633-.25.64-.703.004-.252.001-.504.001-.757 0-.662-.001-1.324.001-1.986 0-.315.073-.391.366-.393.297-.002.593-.004.89 0 .263.004.342.091.343.374.001.97.003 1.94-.002 2.91-.001.18-.02.363-.053.54-.15.795-.654 1.28-1.416 1.377-.072.01-.142.031-.213.047h-2.847ZM1.66 50c-.114-.025-.23-.048-.343-.075-.791-.184-1.24-.735-1.303-1.598a4.687 4.687 0 0 1-.013-.33v-2.815c0-.056-.002-.111.004-.166.015-.151.079-.247.219-.252.377-.014.755-.014 1.133-.003.14.003.205.094.221.248.008.078.006.157.006.236l.001 2.507c0 .087 0 .174.012.26.048.37.238.563.592.575.363.012.726.005 1.09.005.23 0 .46.005.689-.003.379-.015.587-.228.618-.629.01-.125.005-.252.005-.378v-2.436c0-.32.067-.392.362-.393.296-.002.593-.004.89 0 .263.003.347.09.347.37.002.954.008 1.908-.004 2.862a3.23 3.23 0 0 1-.099.77c-.19.73-.684 1.091-1.367 1.198-.072.01-.142.031-.213.047H1.66ZM36.67 49.999c.021-.074.031-.155.066-.222.847-1.633 1.696-3.265 2.545-4.897.014-.027.032-.051.052-.083.534 0 1.066-.007 1.599.004.209.005.381.13.512.298.113.145.218.3.303.464.705 1.366 1.405 2.734 2.109 4.101.054.107.103.21.065.335h-1.69c-.117-.244-.239-.485-.346-.732-.06-.137-.145-.171-.279-.17-.533.007-1.067.004-1.601.003-.072 0-.144-.007-.22-.01l-.428-1.02-.997 1.928-1.69.001Zm3.698-3.744-.06.001c-.272.515-.545 1.029-.812 1.571.072.022.112.044.152.044.444.003.888.003 1.331 0 .044 0 .089-.032.151-.056l-.762-1.56ZM24.3.006v.239l-.003 7.12c0 1.222-.003 2.444-.005 3.666 0 .473-.008.946-.002 1.419.02 1.34.4 2.57 1.016 3.727.237.446.507.869.808 1.262 8.827-2.184 17.642-2.185 26.501-.002.011-.017.04-.063.07-.106.792-1.096 1.366-2.3 1.621-3.666.089-.473.126-.95.125-1.433-.004-1.411-.006-2.822-.008-4.234L54.416.311V0c.253.036.484.063.714.103C56.673.37 58.2.726 59.705 1.17a54.29 54.29 0 0 1 9.946 4.033c.643.338 1.252.749 1.875 1.127.051.031.096.074.165.128-.04.358-.069.727-.124 1.091-.313 2.05-1.17 3.837-2.36 5.458-1.169 1.593-2.579 2.911-4.124 4.073-1.518 1.14-3.139 2.089-4.823 2.916-.06.03-.12.06-.18.092-.013.007-.021.022-.04.043.362.183.723.36 1.08.547 2.067 1.086 4.018 2.364 5.766 3.976 1.267 1.168 2.386 2.477 3.258 4.01.705 1.238 1.205 2.56 1.426 3.994.048.31.068.626.108.938.02.152-.025.25-.153.326-.627.373-1.239.777-1.878 1.124-1.79.972-3.653 1.764-5.532 2.513a46.473 46.473 0 0 1-7.527 2.298c-.61.13-1.225.229-1.838.339-.1.018-.202.02-.327.032v-.282l.008-9.485c0-.78-.003-1.561.01-2.341a7.93 7.93 0 0 0-.899-3.807c-.237-.462-.53-.891-.8-1.334-.04-.065-.092-.12-.134-.176-8.827 2.18-17.643 2.183-26.478.006-.029.032-.07.075-.106.123-.792 1.097-1.361 2.305-1.61 3.671a7.107 7.107 0 0 0-.118 1.292c.005 4.005.008 8.01.011 12.016v.296c-.241.029-.463-.035-.685-.072-3.763-.637-7.374-1.835-10.897-3.355-1.559-.673-3.1-1.386-4.572-2.256-.375-.221-.737-.467-1.122-.711.042-.382.07-.75.126-1.115.312-2.05 1.168-3.837 2.358-5.459 1.168-1.593 2.577-2.912 4.123-4.073 1.518-1.14 3.138-2.09 4.823-2.918l.18-.09c.013-.007.024-.02.05-.043-.077-.04-.147-.077-.217-.112-1.938-.947-3.786-2.058-5.49-3.429-1.42-1.142-2.704-2.433-3.758-3.968-.9-1.31-1.59-2.732-1.934-4.322-.113-.528-.162-1.072-.243-1.608-.026-.167.024-.271.164-.367A20.02 20.02 0 0 1 9.667 4.88C13.15 3.145 16.737 1.723 20.48.767a33.935 33.935 0 0 1 3.685-.75c.037-.005.073-.006.135-.01ZM49.773 20.12c-.093-.065-.159-.114-.227-.16-.575-.376-1.17-.708-1.788-.998-2.083-.98-4.274-1.482-6.537-1.648-1.37-.1-2.74-.091-4.109.035-1.168.107-2.32.309-3.456.623-1.578.437-3.078 1.078-4.47 1.99-.073.047-.144.1-.233.162.09.064.157.113.225.158.778.51 1.594.936 2.444 1.291 2.126.888 4.341 1.307 6.614 1.4 1.803.075 3.6-.011 5.38-.36 1.58-.31 3.106-.8 4.557-1.54.541-.275 1.067-.581 1.6-.953Z" fill="#1D232E"></path></svg>